{"asset":{"generator":"Khronos glTF Spline I/O v0.0.1","version":"2.0"},"scenes":[{"nodes":[0]}],"nodes":[{"name":"","children":[1,2],"matrix":[0.01,0,0,0,0,0.01,0,0,0,0,0.01,0,0,0,0,1]},{"name":"","camera":0,"translation":[-8.252161506799435,35.899304782039216,1016.198926132321],"rotation":[-3.197442310920449e-17,0,0,1]},{"name":"Group","matrix":[1,0,0,0,0,1,0,0,0,0,1,0,0,0,0,1],"children":[3]},{"name":"Text","matrix":[1,0,0,0,0,2.220446049250313e-16,-1,0,0,1,2.220446049250313e-16,0,0,0,0,1],"mesh":0}],"cameras":[{"type":"orthographic","orthographic":{"xmag":1512,"ymag":809,"zfar":100000,"znear":-100000}}],"meshes":[{"primitives":[{"attributes":{"POSITION":1,"NORMAL":2,"TEXCOORD_0":3},"indices":0,"material":0}]}],"materials":[{"pbrMetallicRoughness":{"baseColorFactor":[0.23196744527788907,0.5202449630184527,0.9839957524271845,1],"metallicFactor":0,"roughnessFactor":0.995},"doubleSided":false}],"buffers":[{"uri":"data:application/octet-stream;base64,","byteLength":10432}],"bufferViews":[{"buffer":0,"byteOffset":0,"byteLength":1920,"target":34963},{"buffer":0,"byteOffset":1920,"byteLength":3192,"target":34962},{"buffer":0,"byteOffset":5112,"byteLength":3192,"target":34962},{"buffer":0,"byteOffset":8304,"byteLength":2128,"target":34962}],"accessors":[{"bufferView":0,"byteOffset":0,"componentType":5123,"count":960,"type":"SCALAR","min":[0],"max":[265]},{"bufferView":1,"byteOffset":0,"componentType":5126,"count":266,"type":"VEC3","min":[-12.862499237060547,-25.375,0],"max":[9.1875,25.235000610351562,11]},{"bufferView":2,"byteOffset":0,"componentType":5126,"count":266,"type":"VEC3","min":[-1,-1,-1],"max":[1,1,1]},{"bufferView":3,"byteOffset":0,"componentType":5126,"count":266,"type":"VEC2","min":[0,0],"max":[1,1]}],"extensions":{"KHR_lights_punctual":{"lights":[]}},"extensionsUsed":["KHR_lights_punctual"]}