{"asset":{"generator":"Khronos glTF Spline I/O v0.0.1","version":"2.0"},"scenes":[{"nodes":[0]}],"nodes":[{"name":"","children":[1,2],"matrix":[0.01,0,0,0,0,0.01,0,0,0,0,0.01,0,0,0,0,1]},{"name":"","camera":0,"translation":[569.0981076828266,613.2495739716652,593.5491953219464],"rotation":[-0.2798481450503868,0.36470519754596964,0.11591688939923592,0.8804762400807975]},{"name":"Group","matrix":[1,0,0,0,0,1,0,0,0,0,1,0,0,0,0,1],"children":[3]},{"name":"Text","matrix":[1,0,0,0,0,2.220446049250313e-16,-1,0,0,1,2.220446049250313e-16,0,0,0,0,1],"mesh":0}],"cameras":[{"type":"orthographic","orthographic":{"xmag":1512,"ymag":809,"zfar":100000,"znear":-100000}}],"meshes":[{"primitives":[{"attributes":{"POSITION":1,"NORMAL":2,"TEXCOORD_0":3},"indices":0,"material":0}]}],"materials":[{"pbrMetallicRoughness":{"baseColorFactor":[0.08627450980392157,0.6392156862745098,0.2901960784313726,1],"metallicFactor":0,"roughnessFactor":0.995},"doubleSided":false}],"buffers":[{"uri":"data:application/octet-stream;base64,","byteLength":70936}],"bufferViews":[{"buffer":0,"byteOffset":0,"byteLength":14040,"target":34963},{"buffer":0,"byteOffset":14040,"byteLength":21336,"target":34962},{"buffer":0,"byteOffset":35376,"byteLength":21336,"target":34962},{"buffer":0,"byteOffset":56712,"byteLength":14224,"target":34962}],"accessors":[{"bufferView":0,"byteOffset":0,"componentType":5123,"count":7020,"type":"SCALAR","min":[0],"max":[1777]},{"bufferView":1,"byteOffset":0,"componentType":5126,"count":1778,"type":"VEC3","min":[-20.649999618530273,-25.375,0],"max":[20.650001525878906,25.935001373291016,11]},{"bufferView":2,"byteOffset":0,"componentType":5126,"count":1778,"type":"VEC3","min":[-1,-1,-1],"max":[1,1,1]},{"bufferView":3,"byteOffset":0,"componentType":5126,"count":1778,"type":"VEC2","min":[0,0],"max":[1,1]}],"extensions":{"KHR_lights_punctual":{"lights":[]}},"extensionsUsed":["KHR_lights_punctual"]}