{"asset":{"generator":"Khronos glTF Spline I/O v0.0.1","version":"2.0"},"scenes":[{"nodes":[0]}],"nodes":[{"name":"","children":[1,2],"matrix":[0.01,0,0,0,0,0.01,0,0,0,0,0.01,0,0,0,0,1]},{"name":"","camera":0,"translation":[569.0981076828266,613.2495739716651,593.5491953219462],"rotation":[-0.2798481450503868,0.36470519754596964,0.11591688939923592,0.8804762400807975]},{"name":"Group","matrix":[1,0,0,0,0,1,0,0,0,0,1,0,0,0,0,1],"children":[3]},{"name":"Text","matrix":[1,0,0,0,0,2.220446049250313e-16,-1,0,0,1,2.220446049250313e-16,0,0,0,0,1],"mesh":0}],"cameras":[{"type":"orthographic","orthographic":{"xmag":1512,"ymag":809,"zfar":100000,"znear":-100000}}],"meshes":[{"primitives":[{"attributes":{"POSITION":1,"NORMAL":2,"TEXCOORD_0":3},"indices":0,"material":0}]}],"materials":[{"pbrMetallicRoughness":{"baseColorFactor":[0.6588235294117647,0.3333333333333333,0.9686274509803922,1],"metallicFactor":0,"roughnessFactor":0.995},"doubleSided":false}],"buffers":[{"uri":"data:application/octet-stream;base64,","byteLength":5416}],"bufferViews":[{"buffer":0,"byteOffset":0,"byteLength":744,"target":34963},{"buffer":0,"byteOffset":744,"byteLength":1752,"target":34962},{"buffer":0,"byteOffset":2496,"byteLength":1752,"target":34962},{"buffer":0,"byteOffset":4248,"byteLength":1168,"target":34962}],"accessors":[{"bufferView":0,"byteOffset":0,"componentType":5123,"count":372,"type":"SCALAR","min":[0],"max":[145]},{"bufferView":1,"byteOffset":0,"componentType":5126,"count":146,"type":"VEC3","min":[-21.052499771118164,-25.375,0],"max":[21.997501373291016,25.235000610351562,11]},{"bufferView":2,"byteOffset":0,"componentType":5126,"count":146,"type":"VEC3","min":[-1,-1,-1],"max":[1,1,1]},{"bufferView":3,"byteOffset":0,"componentType":5126,"count":146,"type":"VEC2","min":[0,0],"max":[1,1]}],"extensions":{"KHR_lights_punctual":{"lights":[]}},"extensionsUsed":["KHR_lights_punctual"]}