{"asset":{"generator":"Khronos glTF Spline I/O v0.0.1","version":"2.0"},"scenes":[{"nodes":[0]}],"nodes":[{"name":"","children":[1,2],"matrix":[0.01,0,0,0,0,0.01,0,0,0,0,0.01,0,0,0,0,1]},{"name":"","camera":0,"translation":[569.0981076828266,613.2495739716651,593.5491953219462],"rotation":[-0.2798481450503868,0.36470519754596964,0.11591688939923592,0.8804762400807975]},{"name":"Group","matrix":[1,0,0,0,0,1,0,0,0,0,1,0,0,0,0,1],"children":[3]},{"name":"Text","matrix":[1,0,0,0,0,2.220446049250313e-16,-1,0,0,1,2.220446049250313e-16,0,0,0,0,1],"mesh":0}],"cameras":[{"type":"orthographic","orthographic":{"xmag":1512,"ymag":809,"zfar":100000,"znear":-100000}}],"meshes":[{"primitives":[{"attributes":{"POSITION":1,"NORMAL":2,"TEXCOORD_0":3},"indices":0,"material":0}]}],"materials":[{"pbrMetallicRoughness":{"baseColorFactor":[0.6,0.10588235294117647,0.10588235294117647,1],"metallicFactor":0,"roughnessFactor":0.995},"doubleSided":false}],"buffers":[{"uri":"data:application/octet-stream;base64,","byteLength":68176}],"bufferViews":[{"buffer":0,"byteOffset":0,"byteLength":13584,"target":34963},{"buffer":0,"byteOffset":13584,"byteLength":20472,"target":34962},{"buffer":0,"byteOffset":34056,"byteLength":20472,"target":34962},{"buffer":0,"byteOffset":54528,"byteLength":13648,"target":34962}],"accessors":[{"bufferView":0,"byteOffset":0,"componentType":5123,"count":6792,"type":"SCALAR","min":[0],"max":[1705]},{"bufferView":1,"byteOffset":0,"componentType":5126,"count":1706,"type":"VEC3","min":[-21.90999984741211,-26.145000457763672,0],"max":[21.90999984741211,25.235000610351562,11]},{"bufferView":2,"byteOffset":0,"componentType":5126,"count":1706,"type":"VEC3","min":[-0.9996853470802307,-1,-1],"max":[0.9998228549957275,1,1]},{"bufferView":3,"byteOffset":0,"componentType":5126,"count":1706,"type":"VEC2","min":[0,0],"max":[1,1]}],"extensions":{"KHR_lights_punctual":{"lights":[]}},"extensionsUsed":["KHR_lights_punctual"]}