{"asset":{"generator":"Khronos glTF Spline I/O v0.0.1","version":"2.0"},"scenes":[{"nodes":[0]}],"nodes":[{"name":"","children":[1,2],"matrix":[0.01,0,0,0,0,0.01,0,0,0,0,0.01,0,0,0,0,1]},{"name":"","camera":0,"translation":[569.0981076828266,613.2495739716651,593.5491953219462],"rotation":[-0.2798481450503868,0.36470519754596964,0.11591688939923592,0.8804762400807975]},{"name":"Group","matrix":[1,0,0,0,0,1,0,0,0,0,1,0,0,0,0,1],"children":[3]},{"name":"Text","matrix":[1,0,0,0,0,2.220446049250313e-16,-1,0,0,1,2.220446049250313e-16,0,0,0,0,1],"mesh":0}],"cameras":[{"type":"orthographic","orthographic":{"xmag":1512,"ymag":809,"zfar":100000,"znear":-100000}}],"meshes":[{"primitives":[{"attributes":{"POSITION":1,"NORMAL":2,"TEXCOORD_0":3},"indices":0,"material":0}]}],"materials":[{"pbrMetallicRoughness":{"baseColorFactor":[0.4196078431372549,0.4470588235294118,0.5019607843137255,1],"metallicFactor":0,"roughnessFactor":0.995},"doubleSided":false}],"buffers":[{"uri":"data:application/octet-stream;base64,","byteLength":115960}],"bufferViews":[{"buffer":0,"byteOffset":0,"byteLength":23160,"target":34963},{"buffer":0,"byteOffset":23160,"byteLength":34800,"target":34962},{"buffer":0,"byteOffset":57960,"byteLength":34800,"target":34962},{"buffer":0,"byteOffset":92760,"byteLength":23200,"target":34962}],"accessors":[{"bufferView":0,"byteOffset":0,"componentType":5123,"count":11580,"type":"SCALAR","min":[0],"max":[2899]},{"bufferView":1,"byteOffset":0,"componentType":5126,"count":2900,"type":"VEC3","min":[-21.420000076293945,-26.110000610351562,0],"max":[21.419998168945312,25.935001373291016,11]},{"bufferView":2,"byteOffset":0,"componentType":5126,"count":2900,"type":"VEC3","min":[-0.9997965693473816,-0.9999271035194397,-1],"max":[0.9997965693473816,0.9999174475669861,1]},{"bufferView":3,"byteOffset":0,"componentType":5126,"count":2900,"type":"VEC2","min":[0,0],"max":[1,1]}],"extensions":{"KHR_lights_punctual":{"lights":[]}},"extensionsUsed":["KHR_lights_punctual"]}