{"asset":{"generator":"Khronos glTF Spline I/O v0.0.1","version":"2.0"},"scenes":[{"nodes":[0]}],"nodes":[{"name":"","children":[1,2],"matrix":[0.01,0,0,0,0,0.01,0,0,0,0,0.01,0,0,0,0,1]},{"name":"","camera":0,"translation":[591.7199557313467,667.1608100753821,577.3502691896255],"rotation":[-0.279848139615856,0.3647052017160318,0.11591690251935428,0.8804762383535013]},{"name":"Group","matrix":[1,0,0,0,0,1,0,0,0,0,1,0,0,0,0,1],"children":[3,4]},{"name":"Cube","matrix":[1,0,0,0,0,1,0,0,0,0,1,0,0,37.45703125,0,1],"mesh":0},{"name":"Cube","matrix":[1,0,0,0,0,1,0,0,0,0,1,0,26.28072103128776,64.30778820671668,0,1],"mesh":1}],"cameras":[{"type":"orthographic","orthographic":{"xmag":1512,"ymag":809,"zfar":100000,"znear":-100000}}],"meshes":[{"primitives":[{"attributes":{"POSITION":1,"NORMAL":2,"TEXCOORD_0":3},"indices":0,"material":0}]},{"primitives":[{"attributes":{"POSITION":5,"NORMAL":6,"TEXCOORD_0":7},"indices":4,"material":1}]}],"materials":[{"pbrMetallicRoughness":{"baseColorFactor":[0.8863395024271845,0.4683770476664953,0.18973541115936915,1],"metallicFactor":0,"roughnessFactor":0.995},"doubleSided":false},{"pbrMetallicRoughness":{"baseColorFactor":[0.8862745098039215,0.18823529411764706,0.18823529411764706,1],"metallicFactor":0,"roughnessFactor":0.995},"doubleSided":false}],"buffers":[{"uri":"data:application/octet-stream;base64,","byteLength":840},{"uri":"data:application/octet-stream;base64,","byteLength":840}],"bufferViews":[{"buffer":0,"byteOffset":0,"byteLength":72,"target":34963},{"buffer":0,"byteOffset":72,"byteLength":288,"target":34962},{"buffer":0,"byteOffset":360,"byteLength":288,"target":34962},{"buffer":0,"byteOffset":648,"byteLength":192,"target":34962},{"buffer":1,"byteOffset":0,"byteLength":72,"target":34963},{"buffer":1,"byteOffset":72,"byteLength":288,"target":34962},{"buffer":1,"byteOffset":360,"byteLength":288,"target":34962},{"buffer":1,"byteOffset":648,"byteLength":192,"target":34962}],"accessors":[{"bufferView":0,"byteOffset":0,"componentType":5123,"count":36,"type":"SCALAR","min":[0],"max":[23]},{"bufferView":1,"byteOffset":0,"componentType":5126,"count":24,"type":"VEC3","min":[-5,-40,-5],"max":[5,40,5]},{"bufferView":2,"byteOffset":0,"componentType":5126,"count":24,"type":"VEC3","min":[-1,-1,-1],"max":[1,1,1]},{"bufferView":3,"byteOffset":0,"componentType":5126,"count":24,"type":"VEC2","min":[0,0],"max":[1,1]},{"bufferView":4,"byteOffset":0,"componentType":5123,"count":36,"type":"SCALAR","min":[0],"max":[23]},{"bufferView":5,"byteOffset":0,"componentType":5126,"count":24,"type":"VEC3","min":[-20.899433135986328,-13.149243354797363,-5],"max":[20.899433135986328,13.149243354797363,5]},{"bufferView":6,"byteOffset":0,"componentType":5126,"count":24,"type":"VEC3","min":[-1,-1,-1],"max":[1,1,1]},{"bufferView":7,"byteOffset":0,"componentType":5126,"count":24,"type":"VEC2","min":[0,0],"max":[1,1]}],"extensions":{"KHR_lights_punctual":{"lights":[]}},"extensionsUsed":["KHR_lights_punctual"]}