{"asset":{"generator":"Khronos glTF Spline I/O v0.0.1","version":"2.0"},"scenes":[{"nodes":[0]}],"nodes":[{"name":"","children":[1,2],"matrix":[0.01,0,0,0,0,0.01,0,0,0,0,0.01,0,0,0,0,1]},{"name":"","camera":0,"translation":[42.584541393467845,62.74944078933119,1011.9792516120758],"rotation":[-3.19744231092045e-17,0,0,1]},{"name":"Group","matrix":[1,0,0,0,0,1,0,0,0,0,1,0,0,0,0,1],"children":[3]},{"name":"Container","matrix":[1,0,0,0,0,1,0,0,0,0,1,0,0,30.27816760094288,0,1],"children":[4]},{"name":"Cube","matrix":[1,0,0,0,0,1,0,0,0,0,1,0,0,-15.458594681711002,0,1],"mesh":0}],"cameras":[{"type":"orthographic","orthographic":{"xmag":1512,"ymag":809,"zfar":100000,"znear":-100000}}],"meshes":[{"primitives":[{"attributes":{"POSITION":1,"NORMAL":2,"TEXCOORD_0":3},"indices":0,"material":0}]}],"materials":[{"pbrMetallicRoughness":{"baseColorFactor":[0.3465053013392857,0.5534452892485118,1,1],"metallicFactor":0,"roughnessFactor":1},"doubleSided":false}],"buffers":[{"uri":"data:application/octet-stream;base64,","byteLength":15976}],"bufferViews":[{"buffer":0,"byteOffset":0,"byteLength":2664,"target":34963},{"buffer":0,"byteOffset":2664,"byteLength":4992,"target":34962},{"buffer":0,"byteOffset":7656,"byteLength":4992,"target":34962},{"buffer":0,"byteOffset":12648,"byteLength":3328,"target":34962}],"accessors":[{"bufferView":0,"byteOffset":0,"componentType":5123,"count":1332,"type":"SCALAR","min":[0],"max":[415]},{"bufferView":1,"byteOffset":0,"componentType":5126,"count":416,"type":"VEC3","min":[-50,-15,-50],"max":[50,15,50]},{"bufferView":2,"byteOffset":0,"componentType":5126,"count":416,"type":"VEC3","min":[-1,-1,-1],"max":[1,1,1]},{"bufferView":3,"byteOffset":0,"componentType":5126,"count":416,"type":"VEC2","min":[0,0],"max":[1,1]}],"extensions":{"KHR_lights_punctual":{"lights":[]}},"extensionsUsed":["KHR_lights_punctual"]}