{"asset":{"generator":"Khronos glTF Spline I/O v0.0.1","version":"2.0"},"scenes":[{"nodes":[0]}],"nodes":[{"name":"","children":[1,2],"matrix":[0.01,0,0,0,0,0.01,0,0,0,0,0.01,0,0,0,0,1]},{"name":"","camera":0,"translation":[612.927073998963,571.1903002350066,589.3295208017016],"rotation":[-0.2798481450503868,0.36470519754596964,0.11591688939923592,0.8804762400807975]},{"name":"Group","matrix":[1,0,0,0,0,0.4643538222977929,0,0,0,0,1,0,0,-7.25184237256439,0,1],"children":[3]},{"name":"Container","matrix":[1,0,0,0,0,1,0,0,0,0,1,0,0,59.21714970703128,0,1],"children":[4]},{"name":"Cube","matrix":[1,0,0,0,0,1,0,0,0,0,1,0,0,0,0,1],"mesh":0}],"cameras":[{"type":"orthographic","orthographic":{"xmag":1512,"ymag":866,"zfar":100000,"znear":-100000}}],"meshes":[{"primitives":[{"attributes":{"POSITION":1,"NORMAL":2,"TEXCOORD_0":3},"indices":0,"material":0}]}],"materials":[{"pbrMetallicRoughness":{"baseColorFactor":[0.3465053013392857,0.5534452892485118,1,1],"metallicFactor":0,"roughnessFactor":1},"doubleSided":false}],"buffers":[{"uri":"data:application/octet-stream;base64,","byteLength":23496}],"bufferViews":[{"buffer":0,"byteOffset":0,"byteLength":4296,"target":34963},{"buffer":0,"byteOffset":4296,"byteLength":7200,"target":34962},{"buffer":0,"byteOffset":11496,"byteLength":7200,"target":34962},{"buffer":0,"byteOffset":18696,"byteLength":4800,"target":34962}],"accessors":[{"bufferView":0,"byteOffset":0,"componentType":5123,"count":2148,"type":"SCALAR","min":[0],"max":[599]},{"bufferView":1,"byteOffset":0,"componentType":5126,"count":600,"type":"VEC3","min":[-60,-60,-60],"max":[60,60,60]},{"bufferView":2,"byteOffset":0,"componentType":5126,"count":600,"type":"VEC3","min":[-1,-1,-1],"max":[1,1,1]},{"bufferView":3,"byteOffset":0,"componentType":5126,"count":600,"type":"VEC2","min":[0,0],"max":[1,1]}],"extensions":{"KHR_lights_punctual":{"lights":[]}},"extensionsUsed":["KHR_lights_punctual"]}